<svg width="48" height="52" viewBox="0 0 48 52" fill="none" xmlns="http://www.w3.org/2000/svg">
<path d="M4.5 26C4.5 19.0625 8.15625 12.6875 14.25 9.125C20.25 5.65625 27.6562 5.65625 33.75 9.125C39.75 12.6875 43.5 19.0625 43.5 26C43.5 33.0312 39.75 39.4062 33.75 42.9688C27.6562 46.4375 20.25 46.4375 14.25 42.9688C8.15625 39.4062 4.5 33.0312 4.5 26ZM48 26C48 17.4688 43.4062 9.59375 36 5.28125C28.5 0.96875 19.4062 0.96875 12 5.28125C4.5 9.59375 0 17.4688 0 26C0 34.625 4.5 42.5 12 46.8125C19.4062 51.125 28.5 51.125 36 46.8125C43.4062 42.5 48 34.625 48 26ZM25.4062 14.6562L15.6562 24.4062C14.7188 25.3438 14.7188 26.75 15.6562 27.5938L25.4062 37.3438C26.25 38.2812 27.6562 38.2812 28.5 37.3438C29.4375 36.5 29.4375 35.0938 28.5 34.25L20.3438 26.0938L28.5 17.9375C29.4375 17 29.4375 15.5938 28.5 14.75C27.6562 13.8125 26.25 13.8125 25.4062 14.75V14.6562Z" fill="white"/>
</svg>
