<svg width="130" height="130" viewBox="0 0 130 130" fill="none" xmlns="http://www.w3.org/2000/svg">
<rect width="130" height="130" rx="15" fill="white" fill-opacity="0.08"/>
<path d="M73.9642 56.2608H77.292V71.0442H73.9642V56.2608Z" fill="#F2F2F2"/>
<path d="M84.7884 68.8256C85.1013 68.8256 85.3999 68.8185 85.6844 68.8043C85.9688 68.7901 86.1963 68.7687 86.367 68.7403V66.3297C86.239 66.3013 86.047 66.2728 85.791 66.2444C85.535 66.2159 85.3004 66.2017 85.087 66.2017C84.7884 66.2017 84.504 66.223 84.2337 66.2657C83.9778 66.2942 83.7502 66.3581 83.5511 66.4577C83.352 66.5573 83.1956 66.6924 83.0818 66.863C82.968 67.0337 82.9111 67.247 82.9111 67.503C82.9111 68.0007 83.0747 68.3492 83.4018 68.5483C83.7431 68.7332 84.2053 68.8256 84.7884 68.8256ZM84.5324 59.5247C85.471 59.5247 86.2532 59.6313 86.879 59.8446C87.5047 60.058 88.0025 60.3637 88.3722 60.7619C88.7562 61.1601 89.0264 61.6437 89.1829 62.2125C89.3393 62.7814 89.4175 63.4143 89.4175 64.1111V70.7242C88.9624 70.8237 88.3296 70.9375 87.5189 71.0655C86.7083 71.2077 85.727 71.2788 84.5751 71.2788C83.8498 71.2788 83.1885 71.2148 82.5911 71.0868C82.0081 70.9588 81.5032 70.7526 81.0765 70.4682C80.6499 70.1695 80.3228 69.7856 80.0953 69.3163C79.8677 68.8469 79.7539 68.271 79.7539 67.5883C79.7539 66.9341 79.8819 66.3795 80.1379 65.9244C80.4081 65.4693 80.7637 65.1066 81.2045 64.8364C81.6454 64.5662 82.1503 64.3742 82.7191 64.2605C83.288 64.1325 83.8782 64.0685 84.4897 64.0685C84.9022 64.0685 85.2648 64.0898 85.5777 64.1325C85.9048 64.1609 86.1679 64.2036 86.367 64.2605V63.9618C86.367 63.4214 86.2034 62.9876 85.8763 62.6605C85.5492 62.3334 84.9804 62.1699 84.1698 62.1699C83.6293 62.1699 83.096 62.2125 82.5698 62.2979C82.0436 62.369 81.5885 62.4756 81.2045 62.6179L80.7992 60.058C80.9841 60.0011 81.2117 59.9442 81.4819 59.8873C81.7663 59.8162 82.0721 59.7593 82.3992 59.7166C82.7263 59.6598 83.0676 59.6171 83.4231 59.5887C83.7929 59.546 84.1626 59.5247 84.5324 59.5247Z" fill="#F2F2F2"/>
<path d="M99.0541 62.6392C98.7697 62.5681 98.4355 62.497 98.0515 62.4259C97.6675 62.3405 97.2551 62.2979 96.8142 62.2979C96.6151 62.2979 96.3734 62.3192 96.0889 62.3619C95.8187 62.3903 95.6125 62.4259 95.4703 62.4685V71.0442H92.2917V60.4206C92.8606 60.2215 93.529 60.0366 94.297 59.866C95.0792 59.6811 95.9467 59.5887 96.8996 59.5887C97.0702 59.5887 97.2764 59.6029 97.5182 59.6313C97.76 59.6455 98.0017 59.674 98.2435 59.7166C98.4853 59.7451 98.727 59.7878 98.9688 59.8446C99.2106 59.8873 99.4168 59.9442 99.5874 60.0153L99.0541 62.6392Z" fill="#F2F2F2"/>
<path d="M105.371 68.8256C105.684 68.8256 105.982 68.8185 106.267 68.8043C106.551 68.7901 106.779 68.7687 106.949 68.7403V66.3297C106.821 66.3013 106.629 66.2728 106.373 66.2444C106.118 66.2159 105.883 66.2017 105.67 66.2017C105.371 66.2017 105.086 66.223 104.816 66.2657C104.56 66.2942 104.333 66.3581 104.134 66.4577C103.934 66.5573 103.778 66.6924 103.664 66.863C103.551 67.0337 103.494 67.247 103.494 67.503C103.494 68.0007 103.657 68.3492 103.984 68.5483C104.326 68.7332 104.788 68.8256 105.371 68.8256ZM105.115 59.5247C106.054 59.5247 106.836 59.6313 107.461 59.8446C108.087 60.058 108.585 60.3637 108.955 60.7619C109.339 61.1601 109.609 61.6437 109.765 62.2125C109.922 62.7814 110 63.4143 110 64.1111V70.7242C109.545 70.8237 108.912 70.9375 108.101 71.0655C107.291 71.2077 106.31 71.2788 105.158 71.2788C104.432 71.2788 103.771 71.2148 103.174 71.0868C102.591 70.9588 102.086 70.7526 101.659 70.4682C101.232 70.1695 100.905 69.7856 100.678 69.3163C100.45 68.8469 100.336 68.271 100.336 67.5883C100.336 66.9341 100.464 66.3795 100.72 65.9244C100.991 65.4693 101.346 65.1066 101.787 64.8364C102.228 64.5662 102.733 64.3742 103.302 64.2605C103.87 64.1325 104.461 64.0685 105.072 64.0685C105.485 64.0685 105.847 64.0898 106.16 64.1325C106.487 64.1609 106.75 64.2036 106.949 64.2605V63.9618C106.949 63.4214 106.786 62.9876 106.459 62.6605C106.132 62.3334 105.563 62.1699 104.752 62.1699C104.212 62.1699 103.678 62.2125 103.152 62.2979C102.626 62.369 102.171 62.4756 101.787 62.6179L101.382 60.058C101.567 60.0011 101.794 59.9442 102.064 59.8873C102.349 59.8162 102.655 59.7593 102.982 59.7166C103.309 59.6598 103.65 59.6171 104.006 59.5887C104.375 59.546 104.745 59.5247 105.115 59.5247Z" fill="#F2F2F2"/>
<path d="M43.1083 88.1101C55.9462 88.1101 66.2166 77.6879 66.2166 65C66.2166 52.161 55.7952 41.8898 43.1083 41.8898C30.2704 41.8898 20 52.3121 20 65C20 77.6879 30.4214 88.1101 43.1083 88.1101Z" fill="#F2F2F2"/>
<path d="M43.1083 84.3344C53.8317 84.3344 62.5917 75.5737 62.5917 64.8494C62.5917 54.1251 53.8317 45.3643 43.1083 45.3643C32.3848 45.3643 23.6248 54.1251 23.6248 64.8494C23.6248 75.7247 32.3848 84.3344 43.1083 84.3344Z" fill="#292A2D"/>
<path fill-rule="evenodd" clip-rule="evenodd" d="M62.5918 64.8491C62.5918 75.5734 53.8318 84.3341 43.1083 84.3341C34.1973 84.3341 26.7965 78.4433 24.38 70.2868C24.6821 69.8336 24.9841 69.2295 24.9841 69.2295C27.0986 66.0575 31.6297 61.6771 39.6345 67.2658C42.9573 69.5315 45.8269 70.4378 48.0924 69.8336C48.8476 69.6826 49.6028 69.3805 50.2069 68.9273C51.1131 68.3232 51.8683 67.5679 52.4724 66.5106C53.5297 64.698 54.1338 62.7344 54.4359 61.8281C55.6442 57.9009 56.8525 55.1821 58.9669 53.8227C58.9669 53.8227 58.9669 53.8227 59.118 53.8227C61.3835 56.9946 62.5918 60.7708 62.5918 64.8491Z" fill="#292A2D"/>
<path d="M35.5622 55.3494C36.6879 55.3494 37.6005 54.4312 37.6005 53.2986C37.6005 52.166 36.6879 51.2478 35.5622 51.2478C34.4365 51.2478 33.5239 52.166 33.5239 53.2986C33.5239 54.4312 34.4365 55.3494 35.5622 55.3494Z" fill="#F2F2F2"/>
<path fill-rule="evenodd" clip-rule="evenodd" d="M37.5907 65.891C37.5907 62.7801 40.0918 60.2636 43.1838 60.2636C46.2757 60.2636 48.7769 62.7801 48.7769 65.891C48.7769 65.891 48.7769 68.348 48.7769 71.885C48.7769 75.4219 52.8437 75.4219 52.8437 75.4219V65.891C52.8437 60.5212 48.5209 56.1719 43.1838 56.1719C37.8467 56.1719 33.5239 60.5212 33.5239 65.891H37.5907Z" fill="#F2F2F2" fill-opacity="0.5"/>
<path fill-rule="evenodd" clip-rule="evenodd" d="M48.7769 71.885C48.7769 68.348 48.7769 65.891 48.7769 65.891C48.7769 65.8712 48.7769 65.8414 48.7769 65.8216C48.7178 68.8731 46.2364 71.3301 43.1838 71.3301C40.0918 71.3301 37.5907 68.8137 37.5907 65.7028C37.5907 65.7028 37.5907 63.2458 37.5907 59.7088C37.5907 56.1719 33.5239 56.1719 33.5239 56.1719V65.7028C33.5239 71.0726 37.8467 75.4219 43.1838 75.4219C45.4092 75.4219 47.4574 74.669 49.092 73.3909C48.895 72.9847 48.7769 72.4894 48.7769 71.885Z" fill="#F2F2F2"/>
</svg>
