<svg width="490" height="88" viewBox="0 0 490 88" fill="none" xmlns="http://www.w3.org/2000/svg">
<path d="M0 86.1838V36.4967H13.0361V86.1838H0Z" fill="white"/>
<path d="M42.7608 87.4998C38.7572 87.4998 35.1891 86.8631 32.0565 85.5757C28.9239 84.2882 26.2689 82.5056 24.1056 80.2136C21.9423 77.9217 20.2847 75.1487 19.1468 71.923C18.009 68.6832 17.4471 65.1462 17.4471 61.298C17.4471 57.3791 18.023 53.8139 19.203 50.574C20.369 47.3342 22.0547 44.5754 24.2601 42.2834C26.4656 39.9915 29.1206 38.223 32.2111 36.978C35.3156 35.733 38.8275 35.1105 42.7608 35.1105C46.6239 35.1105 50.0936 35.733 53.17 36.978C56.2324 38.223 58.8593 39.9773 61.0226 42.241C63.1859 44.5046 64.8576 47.2493 66.0235 50.4891C67.1895 53.729 67.7795 57.3367 67.7795 61.3122C67.7795 65.2877 67.1895 68.8813 66.0235 72.0928C64.8576 75.2902 63.1859 78.049 61.0226 80.341C58.8593 82.6329 56.2183 84.4014 53.1138 85.6606C50.0234 86.8773 46.5677 87.4998 42.7608 87.4998ZM42.817 76.4928C50.7679 76.4928 54.7433 71.442 54.7433 61.3405C54.7433 51.3097 50.7679 46.2872 42.817 46.2872C34.866 46.2872 30.8906 51.3097 30.8906 61.3405C30.8765 71.442 34.852 76.4928 42.817 76.4928Z" fill="white"/>
<path d="M103.671 86.1838V56.0915C103.671 52.2574 103.039 49.6684 101.761 48.3102C100.496 46.9662 98.319 46.2871 95.2426 46.2871C88.4858 46.2871 85.1143 50.0928 85.1143 57.7043V86.1838H72.0782V36.4968H84.5103V43.7405C86.0415 40.8826 88.0784 38.7322 90.6069 37.2749C93.1355 35.8177 96.4086 35.082 100.398 35.082C102.73 35.082 104.893 35.4357 106.902 36.1431C108.897 36.8505 110.625 37.9116 112.044 39.3264C113.476 40.7411 114.614 42.4813 115.443 44.5328C116.272 46.5842 116.693 48.961 116.693 51.6632V86.1697H103.671V86.1838Z" fill="white"/>
<path d="M122.326 86.1838V36.4967H135.362V86.1838H122.326Z" fill="white"/>
<path d="M185.287 68.216C184.95 71.1163 184.135 73.7336 182.829 76.0963C181.523 78.459 179.865 80.468 177.87 82.1516C175.861 83.8352 173.572 85.1509 171.001 86.0847C168.43 87.0326 165.635 87.4995 162.629 87.4995C159.285 87.4995 156.223 86.9477 153.456 85.83C150.674 84.7123 148.286 83.0429 146.291 80.7793C144.282 78.5298 142.737 75.7285 141.627 72.4038C140.532 69.0649 139.97 65.1884 139.97 60.7318C139.97 56.2894 140.518 52.4554 141.627 49.2155C142.737 45.9757 144.282 43.3442 146.291 41.2928C148.3 39.2413 150.716 37.7134 153.554 36.6947C156.391 35.6902 159.552 35.1809 163.036 35.1809C166.239 35.1809 169.161 35.6195 171.816 36.4967C174.457 37.3738 176.76 38.6471 178.727 40.3307C180.694 42.0143 182.253 44.0374 183.391 46.386C184.529 48.7486 185.203 51.366 185.4 54.2663H172.265C171.928 51.7055 170.917 49.7107 169.203 48.2535C167.503 46.8104 165.41 46.0889 162.938 46.0889C161.533 46.0889 160.226 46.3294 159.018 46.7962C157.81 47.2631 156.757 48.0554 155.858 49.1731C154.959 50.2766 154.242 51.7621 153.708 53.6155C153.175 55.4688 152.908 57.7466 152.908 60.4347C152.908 65.8816 153.877 69.9279 155.816 72.5594C157.754 75.1909 159.988 76.4925 162.53 76.4925C165.073 76.4925 167.25 75.7851 169.048 74.3703C170.86 72.9555 171.886 70.9041 172.153 68.216H185.287Z" fill="white"/>
<path d="M222.12 86.1837V55.384C222.12 51.6207 221.474 49.0458 220.167 47.6593C218.861 46.287 216.712 45.5937 213.706 45.5937C212.104 45.5937 210.657 45.9191 209.393 46.5558C208.129 47.1924 207.047 48.0696 206.19 49.1873C205.319 50.2908 204.673 51.5782 204.237 53.0213C203.802 54.4644 203.591 56.0348 203.591 57.7184V86.1979H190.555V18.3309H203.591L203.563 42.9764C204.027 41.9012 204.743 40.8684 205.712 39.8922C206.682 38.916 207.792 38.0954 209.07 37.4163C210.334 36.7514 211.739 36.1996 213.27 35.8035C214.801 35.4073 216.403 35.1951 218.074 35.1951C223.145 35.1951 227.261 36.5957 230.436 39.3828C233.597 42.1841 235.184 46.0606 235.184 51.0406V86.1837H222.12Z" fill="white"/>
<path d="M252.406 64.7781C252.603 68.5414 253.699 71.5407 255.666 73.7619C257.632 75.9832 260.231 77.0867 263.434 77.0867C265.569 77.0867 267.465 76.6057 269.095 75.6295C270.724 74.6533 271.778 73.2951 272.256 71.5407H285.685C284.14 76.6622 281.471 80.5953 277.664 83.3541C273.857 86.113 269.306 87.4995 264.024 87.4995C247.574 87.4995 239.356 78.4732 239.356 60.4347C239.356 56.6007 239.89 53.1345 240.958 50.0361C242.025 46.9377 243.585 44.2779 245.622 42.0567C247.658 39.8355 250.145 38.1378 253.095 36.9494C256.031 35.7751 259.416 35.1809 263.223 35.1809C270.837 35.1809 276.61 37.6426 280.516 42.5519C284.435 47.4612 286.388 54.8746 286.388 64.7639H252.406V64.7781ZM272.958 56.5016C272.888 54.6907 272.579 53.092 272.003 51.7055C271.441 50.3332 270.682 49.1872 269.741 48.2676C268.8 47.3622 267.732 46.6831 266.538 46.2445C265.33 45.8059 264.094 45.5795 262.83 45.5795C260.217 45.5795 257.969 46.5416 256.059 48.4657C254.148 50.3898 253.067 53.0637 252.8 56.4875H272.958V56.5016Z" fill="white"/>
<path d="M321.282 86.1837C320.888 84.9104 320.621 83.4249 320.481 81.7413C318.936 83.4956 316.899 84.8821 314.356 85.9291C311.814 86.976 308.878 87.4995 305.534 87.4995C299.859 87.4995 295.687 86.2403 293.046 83.7078C290.405 81.1895 289.085 77.9072 289.085 73.861C289.085 70.2957 289.661 67.452 290.798 65.3299C291.936 63.2077 293.51 61.5382 295.504 60.3357C297.513 59.119 299.901 58.2277 302.669 57.6618C305.436 57.0958 308.47 56.5724 311.743 56.0913C315.016 55.6245 317.222 55.002 318.36 54.2238C319.498 53.4457 320.06 52.1866 320.06 50.4322C320.06 48.8194 319.301 47.5602 317.798 46.6406C316.295 45.7352 314.272 45.2824 311.729 45.2824C308.723 45.2824 306.56 45.9615 305.267 47.3056C303.961 48.6496 303.146 50.4322 302.809 52.6534H290.686C290.756 50.0927 291.164 47.7441 291.936 45.5795C292.709 43.4291 293.945 41.5757 295.645 40.0336C297.345 38.4915 299.564 37.2889 302.303 36.4401C305.043 35.6053 308.372 35.1809 312.305 35.1809C316.168 35.1809 319.456 35.6195 322.153 36.4967C324.85 37.3738 327.013 38.633 328.643 40.2883C330.272 41.9436 331.452 43.995 332.183 46.4567C332.913 48.9184 333.278 51.6914 333.278 54.7898V86.1979H321.282V86.1837ZM320.383 61.8495C319.708 62.5286 318.739 63.0662 317.475 63.4623C316.211 63.8726 314.37 64.3112 311.954 64.7781C308.203 65.5138 305.633 66.4617 304.228 67.6077C302.823 68.7536 302.121 70.3948 302.121 72.5594C302.121 76.2661 304.228 78.1195 308.442 78.1195C310.114 78.1195 311.673 77.8365 313.106 77.2565C314.539 76.6905 315.775 75.9124 316.815 74.9362C317.854 73.96 318.683 72.814 319.315 71.4983C319.947 70.1826 320.27 68.7819 320.27 67.3106L320.383 61.8495Z" fill="white"/>
<path d="M338.631 86.1837V18.3309H351.667V86.1979H338.631V86.1837Z" fill="white"/>
<path d="M384.748 53.4604H396.787V67.594C396.787 70.2114 396.408 72.7297 395.635 75.1207C394.862 77.5116 393.668 79.6338 392.039 81.4872C390.409 83.3405 388.344 84.7978 385.844 85.8871C383.343 86.9624 380.365 87.5 376.896 87.5C373.299 87.5 370.223 86.9624 367.694 85.8871C365.166 84.8119 363.073 83.3688 361.443 81.5438C359.814 79.7187 358.634 77.6107 357.889 75.1773C357.159 72.758 356.793 70.1972 356.793 67.495V23.0709H369.731V36.4972H396.801V45.7923H369.731V66.1934C369.731 69.3625 370.307 71.7959 371.473 73.522C372.639 75.2338 374.55 76.0969 377.205 76.0969C379.789 76.0969 381.7 75.2621 382.936 73.5786C384.158 71.895 384.776 69.504 384.776 66.4056V53.4604H384.748Z" fill="white"/>
<path d="M433.185 86.1837V55.384C433.185 51.6207 432.538 49.0458 431.232 47.6593C429.926 46.287 427.776 45.5937 424.77 45.5937C423.169 45.5937 421.722 45.9191 420.458 46.5558C419.193 47.1924 418.112 48.0696 417.255 49.1873C416.384 50.2908 415.738 51.5782 415.302 53.0213C414.867 54.4644 414.656 56.0348 414.656 57.7184V86.1979H401.62V18.3309H414.656L414.628 42.9764C415.091 41.9012 415.808 40.8684 416.777 39.8922C417.746 38.916 418.856 38.0954 420.134 37.4163C421.399 36.7514 422.803 36.1996 424.335 35.8035C425.866 35.4073 427.467 35.1951 429.139 35.1951C434.21 35.1951 438.326 36.5957 441.501 39.3828C444.661 42.1841 446.249 46.0606 446.249 51.0406V86.1837H433.185Z" fill="white"/>
<path d="M488.251 22.5188C486.214 19.958 481.508 17.8924 475.608 16.6757C473.908 7.04107 469.455 0.179386 464.201 0.151091C458.99 0.122795 454.494 6.78641 452.64 16.2513C441.88 18.0622 436.205 22.5612 439.759 27.0178C441.767 29.5502 446.389 31.5875 452.177 32.8184C453.61 43.4151 458.273 51.1822 463.878 51.2246C465.831 51.2388 467.685 50.305 469.329 48.6356C473.95 43.5141 475.566 35.945 476.114 30.4981C476.268 28.9701 476.353 27.3856 476.353 25.7728C476.353 25.1502 476.352 24.5277 476.338 23.9194H476.353C476.353 23.9194 476.353 23.8769 476.353 23.8062C476.353 23.7779 476.353 23.7638 476.353 23.7638L476.577 23.8769C478.656 24.4146 480.187 25.1361 480.862 25.985C481.887 27.2724 480.806 28.6023 478.277 29.72C478.151 30.7952 477.982 31.8422 477.771 32.8466C486.944 30.7811 491.51 26.6216 488.251 22.5188ZM460.675 6.37612C462.979 6.39027 464.974 10.0687 465.971 15.4873C462.965 15.3458 459.875 15.4024 456.812 15.6854C456.264 15.742 455.717 15.7986 455.183 15.8551C456.222 10.2243 458.301 6.36197 460.675 6.37612ZM466.575 26.2538C466.337 31.5026 465.536 33.7804 465.423 34.0917C464.286 38.4492 462.473 41.2646 460.437 41.2504C459.425 41.2504 458.47 40.5289 457.641 39.2697C455.759 36.4826 455.07 31.7714 455.07 31.7714C452.191 31.2621 451.938 31.1489 451.938 31.1489C451.671 31.064 451.418 30.9791 451.165 30.9084C449.522 30.3991 448.314 29.7624 447.738 29.0267C446.67 27.6827 447.892 26.2679 450.716 25.122C451.306 24.8673 451.741 24.7258 451.741 24.7258C459.411 22.2782 466.646 22.7451 466.646 22.7451C466.646 22.929 466.646 23.113 466.646 23.2969C466.646 23.4808 466.646 23.6647 466.646 23.8628C466.646 24.6692 466.618 25.4615 466.575 26.2538Z" fill="#54C5CE"/>
</svg>
