<svg width="130" height="130" viewBox="0 0 130 130" fill="none" xmlns="http://www.w3.org/2000/svg">
<rect width="130" height="130" rx="15" fill="white" fill-opacity="0.08"/>
<path d="M109.613 46.1558C108.848 45.1862 107.036 44.3951 104.765 43.9358C104.102 40.2869 102.417 37.6587 100.402 37.6587C98.4112 37.6587 96.6761 40.1849 95.9617 43.7827C91.8534 44.4717 89.659 46.1813 91.0369 47.8654C91.8024 48.8351 93.563 49.6006 95.783 50.0599C96.3189 54.0916 98.1306 57.026 100.274 57.0515C101.014 57.0515 101.728 56.6943 102.366 56.0564C104.127 54.1171 104.765 51.2337 104.969 49.1668C105.02 48.5799 105.046 47.993 105.071 47.3806C105.071 47.151 105.071 46.8958 105.071 46.6662C105.071 46.6662 105.071 46.6406 105.071 46.6151V46.5896L105.148 46.6406C105.939 46.8448 106.526 47.1255 106.781 47.4317C107.164 47.9165 106.755 48.4268 105.786 48.8606C105.735 49.2689 105.684 49.6771 105.582 50.0599C109.128 49.2944 110.889 47.7123 109.613 46.1558ZM99.0747 40.0062C99.9678 40.0062 100.708 41.4097 101.091 43.4765C99.9423 43.4255 98.743 43.451 97.5692 43.5531C97.3651 43.5786 97.1609 43.6041 96.9568 43.6296C97.3651 41.4862 98.1561 40.0062 99.0747 40.0062ZM101.32 47.5592C101.218 49.5496 100.912 50.4171 100.886 50.5447C100.453 52.2033 99.7636 53.275 98.9726 53.275C98.5899 53.275 98.2326 52.9943 97.9009 52.5095C97.1865 51.4633 96.9313 49.6516 96.9313 49.6516C95.834 49.4475 95.732 49.422 95.732 49.422C95.6299 49.3965 95.5278 49.3709 95.4258 49.3199C94.7879 49.1158 94.3286 48.8861 94.0989 48.6054C93.6906 48.0951 94.1755 47.5592 95.2472 47.1255C95.4768 47.0234 95.6299 46.9724 95.6299 46.9724C98.5644 46.0282 101.346 46.2324 101.346 46.2324C101.346 46.3089 101.346 46.3855 101.346 46.4365C101.346 46.5131 101.346 46.5896 101.346 46.6406C101.346 46.9724 101.346 47.2786 101.32 47.5592Z" fill="#53C4CD"/>
<path d="M38.9059 77.3118V59.399C38.9059 57.1025 38.5231 55.5714 37.7576 54.7549C36.9921 53.9639 35.6907 53.5556 33.8535 53.5556C29.7963 53.5556 27.7805 55.8266 27.7805 60.3431V77.3118H19.9723V47.7122H27.4233V52.0246C28.3419 50.3405 29.5667 49.0391 31.0722 48.1715C32.6032 47.304 34.5425 46.8702 36.9411 46.8702C38.3445 46.8702 39.6459 47.0743 40.8451 47.5081C42.0444 47.9164 43.0651 48.5543 43.9327 49.3964C44.8003 50.2384 45.4637 51.2846 45.9741 52.5094C46.4589 53.7342 46.714 55.1376 46.714 56.7452V77.2863H38.9059V77.3118Z" fill="#53C4CD"/>
<path d="M87.3114 63.6093C86.8776 65.9058 86.1631 67.9727 85.1935 69.8099C84.2239 71.6471 83.0246 73.2291 81.5446 74.556C80.0901 75.8829 78.3805 76.9036 76.4667 77.618C74.553 78.3325 72.4096 78.6898 70.0875 78.6898C67.4848 78.6898 65.0352 78.256 62.7897 77.3629C60.5187 76.4953 58.5794 75.1684 56.9208 73.3822C55.2877 71.6216 53.9863 69.4526 53.0422 66.8499C52.0981 64.2727 51.6388 61.2362 51.6388 57.7914C51.6388 54.4232 52.0726 51.3867 52.9402 48.6819C53.8077 45.9771 55.0325 43.6806 56.6401 41.8178C58.2477 39.9551 60.187 38.5007 62.509 37.5055C64.8055 36.5103 67.3827 36 70.2406 36C72.7158 36 74.9868 36.3828 77.0026 37.1227C79.0184 37.8627 80.7791 38.9089 82.2335 40.2103C83.688 41.5116 84.8618 43.0682 85.7294 44.8288C86.5969 46.5895 87.1328 48.4778 87.3114 50.4936H78.9419C78.3805 48.2226 77.2833 46.4364 75.7012 45.1861C74.0937 43.9102 72.282 43.2978 70.2916 43.2978C66.7958 43.2978 64.2441 44.5482 62.5855 47.0488C60.9525 49.5495 60.1104 52.9942 60.1104 57.3576C60.1104 61.7976 60.9269 65.2679 62.5345 67.743C64.1676 70.2181 66.5917 71.443 69.8323 71.443C72.3075 71.443 74.3233 70.7795 75.8033 69.4271C77.3088 68.0747 78.3295 66.161 78.8908 63.6093H87.3114Z" fill="#53C4CD"/>
<path d="M36.4817 93.6172V88.6924C36.4817 88.0545 36.3796 87.6462 36.1755 87.4166C35.9714 87.1869 35.6141 87.0848 35.1038 87.0848C33.981 87.0848 33.4452 87.6972 33.4452 88.9476V93.6172H31.3018V85.4773H33.3431V86.6766C33.5983 86.2173 33.93 85.86 34.3383 85.6049C34.7465 85.3752 35.3079 85.2476 35.9458 85.2476C36.3286 85.2476 36.6858 85.2987 37.0175 85.4262C37.3493 85.5283 37.6299 85.7069 37.8596 85.9366C38.0893 86.1662 38.2934 86.4469 38.421 86.7786C38.5741 87.1104 38.6251 87.4931 38.6251 87.9524V93.6172H36.4817Z" fill="#F2F2F2"/>
<path d="M49.1637 89.8407C49.0361 90.4787 48.8574 91.04 48.5768 91.5504C48.3216 92.0607 47.9644 92.4945 47.5816 92.8517C47.1733 93.209 46.714 93.4897 46.1782 93.6938C45.6423 93.8979 45.0554 94 44.4175 94C43.703 94 43.0396 93.8724 42.4017 93.6428C41.7893 93.3876 41.2279 93.0304 40.7941 92.5455C40.3348 92.0607 39.9776 91.4738 39.7224 90.7593C39.4672 90.0449 39.3397 89.2028 39.3397 88.2587C39.3397 87.3401 39.4672 86.498 39.6969 85.7325C39.9265 84.9925 40.2838 84.3546 40.7176 83.8443C41.1514 83.3339 41.6872 82.9257 42.3251 82.6705C42.963 82.3898 43.6775 82.2622 44.443 82.2622C45.132 82.2622 45.7444 82.3643 46.3058 82.5684C46.8671 82.7726 47.352 83.0532 47.7347 83.4105C48.143 83.7677 48.4492 84.2015 48.7043 84.6863C48.934 85.1711 49.0871 85.707 49.1381 86.2429H46.8416C46.6885 85.6049 46.3823 85.1201 45.9485 84.7884C45.5147 84.4312 45.0044 84.2525 44.443 84.2525C43.4734 84.2525 42.7844 84.5843 42.3251 85.2987C41.8658 85.9877 41.6617 86.9318 41.6617 88.1566C41.6617 89.3814 41.8913 90.3256 42.3251 91.0145C42.7844 91.7035 43.4479 92.0352 44.341 92.0352C45.0299 92.0352 45.5658 91.8566 45.9996 91.4738C46.4078 91.0911 46.6885 90.5807 46.8416 89.8663H49.1637V89.8407Z" fill="#F2F2F2"/>
<path d="M53.5781 93.8466C52.9147 93.8466 52.3278 93.7445 51.8175 93.5404C51.3071 93.3362 50.8478 93.03 50.4906 92.6473C50.1334 92.2645 49.8527 91.8052 49.6741 91.2949C49.4954 90.759 49.3934 90.1721 49.3934 89.5597C49.3934 88.9218 49.4954 88.3349 49.6741 87.7991C49.8782 87.2632 50.1334 86.8039 50.5161 86.4467C50.8734 86.0639 51.3071 85.7832 51.843 85.5791C52.3533 85.375 52.9402 85.2729 53.5781 85.2729C54.2161 85.2729 54.803 85.375 55.2878 85.5791C55.7981 85.7832 56.2319 86.0639 56.5891 86.4467C56.9464 86.8039 57.2271 87.2632 57.4057 87.7991C57.6098 88.3349 57.6864 88.9218 57.6864 89.5852C57.6864 90.2487 57.5843 90.8356 57.4057 91.3459C57.2271 91.8818 56.9464 92.3156 56.5891 92.6983C56.2319 93.0811 55.7981 93.3617 55.2878 93.5659C54.7774 93.7445 54.2161 93.8466 53.5781 93.8466ZM53.5781 92.0349C54.8795 92.0349 55.543 91.2183 55.543 89.5597C55.543 87.9011 54.8795 87.0846 53.5781 87.0846C52.2513 87.0846 51.6133 87.9011 51.6133 89.5597C51.6133 91.1928 52.2768 92.0349 53.5781 92.0349Z" fill="#F2F2F2"/>
<path d="M67.9951 93.6172V88.6924C67.9951 88.1821 67.8931 87.7993 67.6634 87.4676C67.4338 87.1614 67.1275 87.0083 66.7193 87.0083C66.311 87.0083 66.0048 87.1614 65.7241 87.4931C65.4689 87.8248 65.3414 88.2331 65.3414 88.7434V93.6172H63.1979V88.7179C63.1979 88.3862 63.1724 88.1055 63.1214 87.9014C63.0704 87.6972 62.9938 87.5186 62.8917 87.4166C62.7897 87.289 62.6621 87.2124 62.4835 87.1614C62.3304 87.1104 62.1262 87.0848 61.8966 87.0848C61.029 87.0848 60.5952 87.6207 60.5952 88.6669V93.6172H58.4518V85.4773H60.4676V86.6766C60.7483 86.1152 61.08 85.758 61.4628 85.5538C61.8455 85.3497 62.3048 85.2476 62.8662 85.2476C63.1469 85.2476 63.3766 85.2731 63.6062 85.3242C63.8103 85.3752 64.0145 85.4518 64.1931 85.5538C64.3717 85.6559 64.5248 85.7835 64.6779 85.9621C64.831 86.1407 64.9841 86.3193 65.1372 86.5745C65.3669 86.1152 65.6476 85.7835 66.0048 85.5793C66.362 85.3752 66.8213 85.2731 67.3317 85.2731C67.7399 85.2731 68.1227 85.3497 68.4544 85.4773C68.7861 85.6049 69.0923 85.809 69.322 86.0642C69.5772 86.3193 69.7558 86.6 69.8834 86.9317C70.0109 87.2635 70.0875 87.6207 70.0875 87.9779V93.6427H67.9951V93.6172Z" fill="#F2F2F2"/>
<path d="M80.5239 93.6172V88.6924C80.5239 88.1821 80.4218 87.7993 80.1667 87.4676C79.937 87.1614 79.6308 87.0083 79.2481 87.0083C78.8398 87.0083 78.5081 87.1614 78.2529 87.4931C77.9977 87.8248 77.8701 88.2331 77.8701 88.7434V93.6172H75.7267V88.7179C75.7267 88.3862 75.7012 88.1055 75.6502 87.9014C75.5991 87.6972 75.5226 87.5186 75.4205 87.4166C75.3184 87.289 75.1909 87.2124 75.0122 87.1614C74.8591 87.1104 74.655 87.0848 74.4254 87.0848C73.5578 87.0848 73.124 87.6207 73.124 88.6669V93.6172H70.9806V85.4773H72.9964V86.6766C73.2771 86.1152 73.6088 85.758 73.9916 85.5538C74.3743 85.3497 74.8336 85.2476 75.395 85.2476C75.6757 85.2476 75.9308 85.2731 76.135 85.3242C76.3391 85.3752 76.5433 85.4518 76.7219 85.5538C76.9005 85.6559 77.0536 85.7835 77.2067 85.9621C77.3598 86.1407 77.5129 86.3193 77.666 86.5745C77.8956 86.1152 78.1763 85.7835 78.5591 85.5793C78.9163 85.3752 79.3501 85.2731 79.886 85.2731C80.2943 85.2731 80.677 85.3497 81.0087 85.4773C81.3404 85.6049 81.6466 85.809 81.8763 86.0642C82.1314 86.3193 82.3101 86.6 82.4377 86.9317C82.5653 87.2635 82.6418 87.6207 82.6418 87.9779V93.6427H80.5239V93.6172Z" fill="#F2F2F2"/>
<path d="M88.5872 93.6171C88.5362 93.413 88.4852 93.1578 88.4596 92.9026C88.2045 93.1833 87.8728 93.413 87.439 93.5916C87.0052 93.7702 86.5203 93.8468 85.9845 93.8468C85.0404 93.8468 84.3514 93.6426 83.9176 93.2344C83.4838 92.8261 83.2542 92.2902 83.2542 91.6268C83.2542 91.0399 83.3563 90.5806 83.5349 90.2234C83.7135 89.8661 83.9942 89.611 84.3259 89.4068C84.6576 89.2027 85.0404 89.0496 85.4997 88.973C85.959 88.871 86.4693 88.7944 87.0052 88.7179C87.541 88.6413 87.9238 88.5392 88.1024 88.4117C88.281 88.2841 88.3831 88.0799 88.3831 87.7993C88.3831 87.5441 88.2555 87.3144 88.0003 87.1868C87.7452 87.0337 87.4134 86.9572 87.0052 86.9572C86.4948 86.9572 86.1631 87.0593 85.9335 87.2889C85.7293 87.5186 85.5762 87.7993 85.5252 88.182H83.5094C83.5094 87.7482 83.5859 87.3655 83.7135 87.0082C83.8411 86.651 84.0452 86.3448 84.3259 86.0896C84.6066 85.8345 84.9638 85.6303 85.4231 85.5027C85.8824 85.3751 86.4183 85.2986 87.0817 85.2986C87.7197 85.2986 88.2555 85.3751 88.7148 85.5027C89.1486 85.6558 89.5313 85.86 89.7865 86.1151C90.0672 86.3958 90.2458 86.7275 90.3734 87.1358C90.501 87.5441 90.552 88.0034 90.552 88.5137V93.6681H88.5872V93.6171ZM88.4341 89.6365C88.3321 89.7385 88.1534 89.8406 87.9493 89.8916C87.7452 89.9682 87.439 90.0192 87.0307 90.1213C86.4183 90.2489 85.9845 90.402 85.7549 90.5806C85.5252 90.7592 85.3976 91.0399 85.3976 91.3971C85.3976 92.0095 85.7549 92.3157 86.4438 92.3157C86.7245 92.3157 86.9797 92.2647 87.2093 92.1882C87.439 92.0861 87.6431 91.9585 87.8217 91.8054C88.0003 91.6523 88.1279 91.4482 88.23 91.244C88.3321 91.0144 88.3831 90.8102 88.3831 90.5551L88.4341 89.6365Z" fill="#F2F2F2"/>
<path d="M96.6761 93.6172V88.6924C96.6761 88.0545 96.574 87.6462 96.3699 87.4166C96.1657 87.1869 95.8085 87.0848 95.2981 87.0848C94.1754 87.0848 93.6395 87.6972 93.6395 88.9476V93.6172H91.4961V85.4773H93.5375V86.6766C93.7927 86.2173 94.1244 85.86 94.5582 85.6049C94.9664 85.3752 95.5278 85.2476 96.1657 85.2476C96.5485 85.2476 96.9057 85.2987 97.2374 85.4262C97.5692 85.5283 97.8498 85.7069 98.0795 85.9366C98.3091 86.1662 98.4878 86.4469 98.6409 86.7786C98.794 87.1104 98.845 87.4931 98.845 87.9524V93.6172H96.6761Z" fill="#F2F2F2"/>
<path d="M105.352 93.617L105.326 92.6219C104.842 93.4384 104.076 93.8212 103.055 93.8212C102.545 93.8212 102.06 93.7191 101.626 93.5149C101.193 93.3108 100.835 93.0301 100.529 92.6474C100.223 92.2646 99.9678 91.8053 99.8147 91.2695C99.6361 90.7336 99.5595 90.1212 99.5595 89.4322C99.5595 88.8198 99.6361 88.2585 99.7892 87.7226C99.9423 87.2123 100.146 86.753 100.453 86.3957C100.733 86.013 101.091 85.7323 101.499 85.5282C101.907 85.324 102.392 85.222 102.902 85.222C103.897 85.222 104.714 85.6558 105.326 86.4978V82.4661H107.444V93.5915H105.352V93.617ZM103.566 92.086C104.076 92.086 104.51 91.8564 104.867 91.4481C105.224 91.0143 105.403 90.4529 105.403 89.764C105.403 88.0033 104.79 87.1102 103.591 87.1102C102.366 87.1102 101.728 87.9523 101.728 89.6364C101.728 90.3764 101.907 90.9633 102.239 91.4226C102.571 91.8564 103.03 92.086 103.566 92.086Z" fill="#F2F2F2"/>
</svg>
