<svg width="130" height="130" viewBox="0 0 130 130" fill="none" xmlns="http://www.w3.org/2000/svg">
<rect width="130" height="130" rx="15" fill="white" fill-opacity="0.08"/>
<path d="M41.829 74.2148V57.5217C41.829 55.3816 41.4723 53.9549 40.7589 53.1939C40.0455 52.4568 38.8328 52.0763 37.1207 52.0763C33.3398 52.0763 31.4612 54.1926 31.4612 58.4016V74.2148H24.1848V46.6308H31.1283V50.6495C31.9844 49.0801 33.1258 47.8674 34.5287 47.0589C35.9555 46.2504 37.7627 45.8461 39.998 45.8461C41.3058 45.8461 42.5186 46.0364 43.6362 46.4406C44.7538 46.8211 45.705 47.4156 46.5135 48.2003C47.322 48.985 47.9402 49.9599 48.4158 51.1014C48.8914 52.2428 49.1054 53.5506 49.1054 55.0487V74.191H41.829V74.2148Z" fill="#53C4CD"/>
<path d="M75.857 74.2145V64.6315C75.857 62.848 75.4527 61.564 74.6205 60.803C73.7882 60.0421 72.2663 59.6616 70.0311 59.6616H61.7321V74.2383H54.1703V37H73.051C74.7631 37 76.3326 37.2616 77.7356 37.8085C79.1385 38.3554 80.3513 39.0926 81.35 40.0437C82.3487 40.9949 83.1334 42.1363 83.6804 43.4679C84.2273 44.7996 84.4889 46.2263 84.4889 47.7482C84.4889 49.7694 84.0133 51.5529 83.0621 53.0985C82.1109 54.6442 80.7317 55.738 78.9483 56.3801C80.5891 56.9032 81.7542 57.7117 82.4438 58.8056C83.1334 59.8994 83.4901 61.5164 83.4901 63.6803V74.2383H75.857V74.2145ZM61.7321 43.4442V53.3126H71.4816C73.5742 53.3126 75.0485 52.8608 75.9045 51.9334C76.7606 51.006 77.1886 49.8408 77.1886 48.414C77.1886 46.9635 76.7606 45.7745 75.9283 44.8471C75.0961 43.9198 73.6931 43.4442 71.7432 43.4442H61.7321V43.4442Z" fill="#53C4CD"/>
<path d="M58.5457 89.4093V84.8199C58.5457 84.2255 58.4506 83.845 58.2603 83.631C58.0701 83.417 57.7372 83.3218 57.2616 83.3218C56.2153 83.3218 55.6922 83.8925 55.6922 85.0577V89.4093H53.6947V81.8237H55.5971V82.9414C55.8348 82.5133 56.144 82.1804 56.5482 81.9426C56.9525 81.7286 57.4518 81.6097 58.0463 81.6097C58.403 81.6097 58.7359 81.6573 59.045 81.7762C59.3542 81.8713 59.6157 82.0378 59.8298 82.2518C60.0438 82.4658 60.234 82.7274 60.3529 83.0365C60.4718 83.3456 60.5431 83.7261 60.5431 84.1303V89.4093H58.5457V89.4093Z" fill="#F2F2F2"/>
<path d="M67.2965 89.4095V86.77C67.2965 86.2706 67.1776 85.9139 66.9636 85.7237C66.7258 85.5097 66.3215 85.4146 65.7033 85.4146H63.4205V89.4333H61.3279V79.1844H66.5355C67.0111 79.1844 67.4391 79.2558 67.8196 79.3984C68.2001 79.5411 68.533 79.7551 68.8183 80.0167C69.1037 80.2783 69.3177 80.5874 69.4604 80.9441C69.6031 81.3008 69.6982 81.705 69.6982 82.133C69.6982 82.68 69.5793 83.1793 69.2939 83.6074C69.0324 84.0354 68.6519 84.3445 68.1525 84.511C68.6043 84.6536 68.9372 84.8677 69.1275 85.1768C69.3177 85.4859 69.4128 85.9139 69.4128 86.5322V89.4333H67.2965V89.4095ZM63.4205 80.9203V83.6311H66.1075C66.6782 83.6311 67.0825 83.4885 67.3202 83.2507C67.558 82.9891 67.6769 82.68 67.6769 82.2757C67.6769 81.8715 67.558 81.5623 67.3202 81.3008C67.0825 81.0392 66.702 80.9203 66.1788 80.9203H63.4205V80.9203Z" fill="#F2F2F2"/>
<path d="M72.0525 86.128C72.0763 86.6987 72.2428 87.1505 72.5519 87.5072C72.861 87.8401 73.2653 88.0304 73.7409 88.0304C74.0738 88.0304 74.3591 87.959 74.6207 87.8164C74.8823 87.6737 75.0249 87.4597 75.0963 87.1981H77.1651C76.9273 87.9828 76.523 88.5773 75.9285 89.0053C75.3341 89.4334 74.6445 89.6474 73.836 89.6474C71.2916 89.6474 70.0313 88.2682 70.0313 85.5098C70.0313 84.9153 70.1026 84.3922 70.2691 83.9166C70.4355 83.441 70.6733 83.0367 70.9825 82.7038C71.2916 82.3709 71.6721 82.1093 72.1239 81.9191C72.5757 81.7289 73.0988 81.6575 73.6933 81.6575C74.8585 81.6575 75.7621 82.038 76.3566 82.7752C76.9511 83.5361 77.2602 84.6537 77.2602 86.1756H72.0525V86.128ZM75.2152 84.8677C75.2152 84.5824 75.1676 84.3446 75.0725 84.1306C74.9774 83.9166 74.8585 83.7501 74.7396 83.6074C74.5969 83.4648 74.4305 83.3696 74.2402 83.2983C74.05 83.227 73.8598 83.2032 73.6695 83.2032C73.2653 83.2032 72.9324 83.3459 72.6232 83.655C72.3379 83.9403 72.1714 84.3446 72.1239 84.8915H75.2152V84.8677Z" fill="#F2F2F2"/>
<path d="M77.9022 93V81.8H79.8283L79.8521 82.7274C80.3277 81.9902 81.0173 81.6097 81.9684 81.6097C82.444 81.6097 82.8721 81.7049 83.3001 81.8951C83.7043 82.0853 84.061 82.3469 84.3464 82.7036C84.6317 83.0603 84.8695 83.4883 85.036 83.9877C85.2024 84.487 85.2738 85.0577 85.2738 85.6998C85.2738 86.2705 85.2024 86.7936 85.0597 87.2692C84.9171 87.7448 84.7268 88.1728 84.4415 88.5057C84.1799 88.8624 83.847 89.124 83.4665 89.3142C83.0861 89.5044 82.6343 89.5996 82.1349 89.5996C81.2075 89.5996 80.4466 89.1953 79.8759 88.4106V93H77.9022ZM81.4929 87.8875C82.658 87.8875 83.2287 87.1027 83.2287 85.5333C83.2287 84.8437 83.0623 84.2968 82.7532 83.8688C82.4202 83.4407 82.016 83.2267 81.5166 83.2267C81.0411 83.2267 80.6368 83.417 80.3039 83.8212C79.971 84.2255 79.8283 84.7486 79.8283 85.3906C79.8045 87.0552 80.3752 87.8875 81.4929 87.8875Z" fill="#F2F2F2"/>
<path d="M89.6489 89.5996C89.0306 89.5996 88.4837 89.5044 88.0081 89.3142C87.5326 89.124 87.1283 88.8386 86.7716 88.4819C86.4387 88.1252 86.1771 87.6972 86.0107 87.2216C85.8442 86.7223 85.7491 86.1754 85.7491 85.6047C85.7491 85.0102 85.8442 84.4632 86.0107 83.9639C86.1771 83.4645 86.4387 83.0365 86.7954 82.7036C87.1283 82.3469 87.5326 82.0853 88.0081 81.8951C88.4837 81.7049 89.0307 81.6097 89.6251 81.6097C90.2196 81.6097 90.7428 81.7049 91.2183 81.8951C91.6939 82.0853 92.0982 82.3469 92.4311 82.7036C92.764 83.0365 93.0256 83.4645 93.192 83.9639C93.3585 84.4632 93.4536 85.0102 93.4536 85.6284C93.4536 86.2467 93.3585 86.7936 93.192 87.2692C93.0018 87.7686 92.764 88.1728 92.4311 88.5295C92.0982 88.8862 91.6939 89.1478 91.2183 89.338C90.7665 89.5045 90.2196 89.5996 89.6489 89.5996ZM89.6489 87.9112C90.8854 87.9112 91.4799 87.1503 91.4799 85.6047C91.4799 84.059 90.8617 83.2981 89.6489 83.2981C88.4124 83.2981 87.8179 84.059 87.8179 85.6047C87.8179 87.1503 88.4124 87.9112 89.6489 87.9112Z" fill="#F2F2F2"/>
<path d="M94.1669 89.4095V81.8239H96.0455V82.7276C96.2119 82.466 96.3784 82.2757 96.5686 82.1331C96.7588 81.9904 96.9253 81.8715 97.1155 81.8002C97.3058 81.7288 97.496 81.6813 97.6862 81.6575C97.8765 81.6337 98.0905 81.6337 98.2807 81.6337H98.5423V83.7025C98.352 83.6787 98.1618 83.6549 97.9953 83.6549C96.7826 83.6549 96.1643 84.2732 96.1643 85.4859V89.4333H94.1669V89.4095Z" fill="#F2F2F2"/>
<path d="M103.322 84.392H105.177V86.5559C105.177 86.9601 105.105 87.3406 104.987 87.6973C104.868 88.054 104.677 88.3869 104.44 88.6722C104.178 88.9576 103.869 89.1716 103.488 89.338C103.108 89.5045 102.656 89.5758 102.109 89.5758C101.562 89.5758 101.087 89.5045 100.683 89.338C100.302 89.1716 99.9692 88.9576 99.7314 88.6722C99.4698 88.3869 99.3034 88.0777 99.1845 87.6973C99.0656 87.3168 99.018 86.9363 99.018 86.5083V79.7074H101.015V81.7762H105.177V83.203H101.015V86.3181C101.015 86.7937 101.111 87.1741 101.277 87.4357C101.443 87.6973 101.753 87.8399 102.157 87.8399C102.561 87.8399 102.846 87.6973 103.037 87.4595C103.227 87.1979 103.322 86.8412 103.322 86.3656V84.392V84.392Z" fill="#F2F2F2"/>
<path d="M105.439 45.1563C104.701 44.2527 103.037 43.5156 100.92 43.0875C100.302 39.6871 98.7328 37.2379 96.8542 37.2379C94.9994 37.2379 93.3825 39.592 92.7166 42.9449C88.8882 43.5869 86.8432 45.1801 88.1272 46.7496C88.8406 47.6532 90.4814 48.3665 92.5502 48.7946C93.0495 52.5517 94.7379 55.2863 96.7353 55.3101C97.4249 55.3101 98.0907 54.9772 98.6852 54.3827C100.326 52.5755 100.92 49.8884 101.111 47.9623C101.158 47.4154 101.206 46.8684 101.206 46.2977C101.206 46.0837 101.206 45.8459 101.206 45.6319C101.206 45.6319 101.206 45.6081 101.206 45.5844V45.5606L101.277 45.6081C102.014 45.7984 102.561 46.0599 102.799 46.3453C103.156 46.7971 102.775 47.2727 101.872 47.6769C101.824 48.0574 101.777 48.4379 101.681 48.7946C104.987 48.0812 106.604 46.6069 105.439 45.1563ZM95.6177 39.4493C96.45 39.4493 97.1396 40.7572 97.4963 42.6833C96.4262 42.6357 95.3086 42.6595 94.2147 42.7546C94.0245 42.7784 93.8343 42.8022 93.644 42.826C94.0245 40.8047 94.7616 39.4493 95.6177 39.4493ZM97.7103 46.488C97.6152 48.3428 97.3298 49.1513 97.306 49.2702C96.9018 50.8158 96.2597 51.8145 95.5226 51.8145C95.1659 51.8145 94.833 51.553 94.5239 51.1012C93.858 50.1262 93.6202 48.4379 93.6202 48.4379C92.5977 48.2476 92.5026 48.2239 92.5026 48.2239C92.4075 48.2001 92.3124 48.1763 92.2173 48.1288C91.6228 47.9385 91.1948 47.7245 90.9807 47.4629C90.6003 46.9873 91.0283 46.488 92.0508 46.0837C92.2648 45.9886 92.4075 45.9411 92.4075 45.9411C95.1421 45.0612 97.734 45.2515 97.734 45.2515C97.734 45.3228 97.734 45.3941 97.734 45.4417C97.734 45.513 97.734 45.5844 97.734 45.6319C97.734 45.9173 97.7341 46.2026 97.7103 46.488Z" fill="#53C4CD"/>
</svg>
