<svg width="130" height="130" viewBox="0 0 130 130" fill="none" xmlns="http://www.w3.org/2000/svg">
<rect width="130" height="130" rx="15" fill="white" fill-opacity="0.08"/>
<path d="M49.5684 75.58V56.484C49.5684 50.492 45.7044 47.3 40.4404 47.3C36.0164 47.3 33.2164 48.98 31.5364 52.06V48.028H24.5924V75.58H31.8724V59.788C31.8724 55.588 33.7204 53.46 37.5284 53.46C41.0004 53.46 42.2324 54.636 42.2324 58.892V75.58H49.5684Z" fill="#53C4CD"/>
<path d="M71.4045 75.58L84.0045 38.396H75.9405L67.8765 64.492L59.7565 38.396H51.4685L64.0685 75.58H71.4045Z" fill="#53C4CD"/>
<path d="M60.552 91.396V85.94C60.552 84.228 59.448 83.316 57.944 83.316C56.68 83.316 55.88 83.796 55.4 84.676V83.524H53.416V91.396H55.496V86.884C55.496 85.684 56.024 85.076 57.112 85.076C58.104 85.076 58.456 85.412 58.456 86.628V91.396H60.552Z" fill="#F2F2F2"/>
<path d="M66.4709 91.396L70.0709 80.772H67.7669L65.4629 88.228L63.1429 80.772H60.7749L64.3749 91.396H66.4709Z" fill="#F2F2F2"/>
<path d="M72.4352 91.396V83.524H70.3552V91.396H72.4352ZM72.4352 82.58V80.644H70.3552V82.58H72.4352Z" fill="#F2F2F2"/>
<path d="M75.1454 91.396V87.3C75.1454 86.036 75.7694 85.396 77.0494 85.396C77.2414 85.396 77.4334 85.412 77.6254 85.444V83.316H77.3534C76.5054 83.316 75.7054 83.412 75.0174 84.468V83.524H73.0654V91.396H75.1454Z" fill="#F2F2F2"/>
<path d="M82.35 88.26C82.35 89.236 81.966 89.796 81.134 89.796C80.286 89.796 79.934 89.22 79.934 88.228V84.996H84.286V83.524H79.934V81.396H77.886V88.436C77.886 90.132 78.798 91.604 81.102 91.604C83.326 91.604 84.286 90.116 84.286 88.452V86.212H82.35V88.26Z" fill="#F2F2F2"/>
<path d="M91.904 91.396V83.524H89.84V88.068C89.84 89.108 89.28 89.86 88.224 89.86C87.344 89.86 86.896 89.38 86.896 88.388V83.524H84.816V88.708C84.816 90.436 85.92 91.604 87.488 91.604C88.576 91.604 89.392 91.188 89.936 90.292V91.396H91.904Z" fill="#F2F2F2"/>
<path d="M97.264 88.404C97.248 89.332 96.448 90.116 95.376 90.116C94.72 90.116 94.368 89.828 94.368 89.236C94.368 88.564 94.752 88.228 95.936 88.004C96.704 87.86 97.072 87.748 97.28 87.54L97.264 88.404ZM99.36 91.396V86.42C99.36 84.436 98.496 83.316 96 83.316C93.472 83.316 92.576 84.452 92.544 86.084H94.48C94.576 85.38 94.96 84.916 95.904 84.916C96.72 84.916 97.232 85.22 97.232 85.732C97.232 86.276 96.944 86.484 95.904 86.628C93.808 86.916 92.288 87.172 92.288 89.444C92.288 90.724 93.12 91.604 94.912 91.604C95.968 91.604 96.8 91.236 97.296 90.692C97.312 90.932 97.36 91.204 97.424 91.396H99.36Z" fill="#F2F2F2"/>
<path d="M102.037 91.396V80.644H99.9572V91.396H102.037Z" fill="#F2F2F2"/>
<path d="M105.031 46.5523C104.294 45.6487 102.629 44.9116 100.513 44.4835C99.8946 41.0831 98.3252 38.6339 96.4466 38.6339C94.5918 38.6339 92.9748 40.988 92.309 44.3409C88.4806 44.9829 86.4355 46.5761 87.7196 48.1455C88.433 49.0492 90.0738 49.7625 92.1426 50.1906C92.6419 53.9477 94.3302 56.6823 96.3277 56.7061C97.0173 56.7061 97.6831 56.3732 98.2776 55.7787C99.9184 53.9715 100.513 51.2844 100.703 49.3583C100.751 48.8114 100.798 48.2644 100.798 47.6937C100.798 47.4797 100.798 47.2419 100.798 47.0279C100.798 47.0279 100.798 47.0041 100.798 46.9804V46.9566L100.87 47.0041C101.607 47.1944 102.154 47.4559 102.391 47.7413C102.748 48.1931 102.368 48.6687 101.464 49.0729C101.416 49.4534 101.369 49.8339 101.274 50.1906C104.579 49.4772 106.196 48.0029 105.031 46.5523ZM95.2101 40.8453C96.0423 40.8453 96.7319 42.1532 97.0886 44.0793C96.0186 44.0317 94.9009 44.0555 93.8071 44.1506C93.6169 44.1744 93.4266 44.1982 93.2364 44.222C93.6169 42.2007 94.354 40.8453 95.2101 40.8453ZM97.3027 47.884C97.2075 49.7388 96.9222 50.5473 96.8984 50.6661C96.4942 52.2118 95.8521 53.2105 95.115 53.2105C94.7583 53.2105 94.4254 52.949 94.1162 52.4972C93.4504 51.5222 93.2126 49.8339 93.2126 49.8339C92.1901 49.6436 92.095 49.6199 92.095 49.6199C91.9999 49.5961 91.9048 49.5723 91.8096 49.5247C91.2152 49.3345 90.7871 49.1205 90.5731 48.8589C90.1927 48.3833 90.6207 47.884 91.6432 47.4797C91.8572 47.3846 91.9999 47.3371 91.9999 47.3371C94.7345 46.4572 97.3264 46.6475 97.3264 46.6475C97.3264 46.7188 97.3264 46.7901 97.3264 46.8377C97.3264 46.909 97.3264 46.9804 97.3264 47.0279C97.3264 47.3133 97.3264 47.5986 97.3027 47.884Z" fill="#53C4CD"/>
</svg>
